<?xml version="1.0" encoding="UTF-8" standalone="no"?>
<!DOCTYPE svg PUBLIC "-//W3C//DTD SVG 1.1//EN" "http://www.w3.org/Graphics/SVG/1.1/DTD/svg11.dtd">
<svg width="100%" height="100%" viewBox="0 0 3654 1294" version="1.1" xmlns="http://www.w3.org/2000/svg" xmlns:xlink="http://www.w3.org/1999/xlink" xml:space="preserve" xmlns:serif="http://www.serif.com/" style="fill-rule:evenodd;clip-rule:evenodd;stroke-linejoin:round;stroke-miterlimit:2;">
    <g id="Page-1" serif:id="Page 1" transform="matrix(3.383333,0,0,2.425192,0,0)">
        <rect x="0" y="0" width="1080" height="533.456" style="fill:none;"/>
        <g id="Layer-1" serif:id="Layer 1" transform="matrix(1.231527,0,0,1.718077,-153.990148,-207.81858)">
            <g transform="matrix(1,0,0,1,368.8999,218.9003)">
                <path d="M0,211.787C22.365,211.787 40.496,193.656 40.496,171.291L40.496,40.496C40.496,18.131 22.365,0 0,0C-22.365,0 -40.496,18.131 -40.496,40.496L-40.496,171.291C-40.496,193.656 -22.365,211.787 0,211.787" style="fill-rule:nonzero;"/>
            </g>
            <g transform="matrix(1,0,0,1,760.9445,145.2713)">
                <path d="M0,285.416C22.365,285.416 40.496,267.285 40.496,244.92L40.496,40.495C40.496,18.13 22.365,0 0,0C-22.365,0 -40.496,18.13 -40.496,40.495L-40.496,244.92C-40.496,267.285 -22.365,285.416 0,285.416" style="fill-rule:nonzero;"/>
            </g>
            <g transform="matrix(1,0,0,1,897.1829,328.87)">
                <path d="M0,-20.681L0,-56.54C0,-62.831 5.1,-67.932 11.391,-67.932C17.683,-67.932 22.783,-62.831 22.783,-56.54L22.783,-38.332C22.783,-15.967 40.913,2.164 63.279,2.164C85.644,2.164 103.774,-15.967 103.774,-38.332L103.774,-94.193C103.774,-112.71 88.764,-127.72 70.247,-127.72L-47.464,-127.72C-65.981,-127.72 -80.992,-112.71 -80.992,-94.193L-80.992,4.802C-80.992,17.345 -75.179,29.181 -65.253,36.849L7.757,93.367C25.456,107.039 50.888,103.775 64.561,86.076C78.234,68.377 74.97,42.945 57.271,29.272L4.427,-11.666C1.635,-13.823 0,-17.153 0,-20.681" style="fill-rule:nonzero;"/>
            </g>
            <g transform="matrix(1,0,0,1,643.7068,417.0013)">
                <path d="M0,-263.345L-55.117,-220.727C-65.036,-213.057 -70.844,-201.226 -70.844,-188.688L-70.844,-26.81C-70.844,-4.445 -52.713,13.686 -30.348,13.686C-7.983,13.686 10.148,-4.445 10.148,-26.81L10.148,-79.676C10.148,-82.734 12.627,-85.213 15.685,-85.213L25.828,-85.213C46.411,-85.213 63.097,-101.899 63.097,-122.483C63.097,-143.067 46.411,-159.753 25.828,-159.753L14.673,-159.753C9.394,-159.753 7.109,-166.44 11.285,-169.67L49.553,-199.272C67.237,-212.951 70.491,-238.372 56.824,-256.065C43.145,-273.771 17.7,-277.031 0,-263.345" style="fill-rule:nonzero;"/>
            </g>
            <g transform="matrix(1,0,0,1,496.8516,417.0013)">
                <path d="M0,-263.345L-55.117,-220.727C-65.036,-213.057 -70.844,-201.226 -70.844,-188.688L-70.844,-26.81C-70.844,-4.445 -52.713,13.686 -30.348,13.686C-7.983,13.686 10.148,-4.445 10.148,-26.81L10.148,-79.676C10.148,-82.734 12.627,-85.213 15.685,-85.213L27.678,-85.213C48.262,-85.213 64.948,-101.899 64.948,-122.483C64.948,-143.067 48.262,-159.753 27.678,-159.753L14.673,-159.753C9.394,-159.753 7.109,-166.44 11.285,-169.67L49.553,-199.272C67.237,-212.951 70.491,-238.372 56.824,-256.065C43.145,-273.771 17.7,-277.031 0,-263.345" style="fill-rule:nonzero;"/>
            </g>
            <g transform="matrix(1,0,0,1,165.9697,430.6872)">
                <path d="M0,-240.885C-22.265,-240.885 -40.314,-222.836 -40.314,-200.571L-40.314,-40.496C-40.314,-18.13 -22.183,0 0.182,0C22.547,0 40.678,-18.13 40.678,-40.496L40.678,-111.827C40.678,-119.214 46.666,-125.203 54.054,-125.203C61.441,-125.203 67.43,-119.214 67.43,-111.827L67.43,-93.24C67.43,-70.875 85.56,-52.744 107.925,-52.744C130.29,-52.744 148.421,-70.875 148.421,-93.24L148.421,-132.018C148.421,-145.896 141.314,-158.808 129.589,-166.232L21.567,-234.631C15.115,-238.716 7.636,-240.885 0,-240.885Z" style="fill-rule:nonzero;"/>
            </g>
            <g transform="matrix(0,-1,-1,0,368.8997,121.5252)">
                <path d="M-44.194,-44.194C-68.602,-44.194 -88.388,-24.408 -88.388,0C-88.388,24.407 -68.602,44.194 -44.194,44.194C-19.786,44.194 0,24.407 0,0C0,-24.408 -19.786,-44.194 -44.194,-44.194" style="fill-rule:nonzero;"/>
            </g>
        </g>
    </g>
</svg>
